<svg viewBox="0 0 400 400" xmlns="http://www.w3.org/2000/svg">
  <rect width="400" height="400" rx="86" fill="#2E3A34"/>
  <g transform="translate(40,40) scale(0.8)">
    <path d="M200 64 L330 178 L330 332 L70 332 L70 178 Z" fill="none" stroke="#F5EFE6" stroke-width="21" stroke-linejoin="round" stroke-linecap="round"/>
    <path fill="#D98452" d="M207 165 C215 190 225 206 224 234 C231 222 239 214 243 204 C249 226 248 262 227 288 C217 302 207 309 197 309 C178 309 159 297 160 269 C160 250 168 235 178 227 C180 214 179 203 183 193 C188 209 194 218 200 222 C204 200 202 184 207 165 Z"/>
    <path fill="#E9A878" d="M202 190 C209 210 222 230 219 258 C217 280 209 294 198 294 C186 294 178 282 177 260 C175 236 194 212 202 190 Z"/>
    <path fill="#F5EFE6" d="M199 216 C205 234 219 250 216 272 C214 288 208 296 198 296 C188 296 182 288 180 272 C177 250 192 234 199 216 Z"/>
  </g>
</svg>
