<svg viewBox="0 0 400 400" xmlns="http://www.w3.org/2000/svg" role="img" aria-label="hyggehome mark">
  <path d="M200 64 L330 178 L330 332 L70 332 L70 178 Z" fill="none" stroke="#2E3A34" stroke-width="21" stroke-linejoin="round" stroke-linecap="round"/>
  <path fill="#D98452" d="M 207 176 C 213 197 222 211 221 235 C 227 225 234 218 238 209 C 243 228 242 259 224 281 C 215 293 207 299 198 299 C 182 299 165 289 166 265 C 166 249 173 236 182 229 C 183 218 182 208 186 200 C 190 213 195 221 201 225 C 204 206 202 192 207 176 Z"/><path fill="#E9A878" d="M 202 197 C 208 214 219 231 217 255 C 215 274 208 286 199 286 C 189 286 182 276 181 257 C 179 237 195 216 202 197 Z"/><path fill="#F5EFE6" d="M 200 219 C 205 235 217 249 214 268 C 213 281 207 288 199 288 C 190 288 185 281 183 268 C 181 249 194 235 200 219 Z"/>
</svg>
